<svg xmlns="http://www.w3.org/2000/svg" version="1.1" xmlns:xlink="http://www.w3.org/1999/xlink" xmlns:svgjs="http://svgjs.dev/svgjs" viewBox="0 0 800 800"><defs><linearGradient x1="50%" y1="0%" x2="50%" y2="100%" id="cccoil-grad"><stop stop-color="hsl(205, 69%, 60%)" stop-opacity="1" offset="0%"></stop><stop stop-color="hsl(205, 69%, 80%)" stop-opacity="1" offset="100%"></stop></linearGradient></defs><g stroke="url(#cccoil-grad)" fill="none" stroke-linecap="round"><circle r="341" cx="400" cy="400" stroke-width="6" stroke-dasharray="1735 2143" transform="rotate(360, 400, 400)"></circle><circle r="325.5" cx="400" cy="400" stroke-width="6" stroke-dasharray="1578 2045" transform="rotate(343, 400, 400)"></circle><circle r="310" cx="400" cy="400" stroke-width="6" stroke-dasharray="1427 1948" transform="rotate(326, 400, 400)"></circle><circle r="294.5" cx="400" cy="400" stroke-width="6" stroke-dasharray="1285 1850" transform="rotate(309, 400, 400)"></circle><circle r="279" cx="400" cy="400" stroke-width="6" stroke-dasharray="1149 1753" transform="rotate(291, 400, 400)"></circle><circle r="263.5" cx="400" cy="400" stroke-width="6" stroke-dasharray="1022 1656" transform="rotate(274, 400, 400)"></circle><circle r="248" cx="400" cy="400" stroke-width="6" stroke-dasharray="902 1558" transform="rotate(257, 400, 400)"></circle><circle r="232.5" cx="400" cy="400" stroke-width="6" stroke-dasharray="789 1461" transform="rotate(240, 400, 400)"></circle><circle r="217" cx="400" cy="400" stroke-width="6" stroke-dasharray="684 1363" transform="rotate(223, 400, 400)"></circle><circle r="201.5" cx="400" cy="400" stroke-width="6" stroke-dasharray="586 1266" transform="rotate(206, 400, 400)"></circle><circle r="186" cx="400" cy="400" stroke-width="6" stroke-dasharray="496 1169" transform="rotate(189, 400, 400)"></circle><circle r="170.5" cx="400" cy="400" stroke-width="6" stroke-dasharray="413 1071" transform="rotate(171, 400, 400)"></circle><circle r="155" cx="400" cy="400" stroke-width="6" stroke-dasharray="338 974" transform="rotate(154, 400, 400)"></circle><circle r="139.5" cx="400" cy="400" stroke-width="6" stroke-dasharray="270 877" transform="rotate(137, 400, 400)"></circle><circle r="124" cx="400" cy="400" stroke-width="6" stroke-dasharray="210 779" transform="rotate(120, 400, 400)"></circle><circle r="108.5" cx="400" cy="400" stroke-width="6" stroke-dasharray="158 682" transform="rotate(103, 400, 400)"></circle><circle r="93" cx="400" cy="400" stroke-width="6" stroke-dasharray="113 584" transform="rotate(86, 400, 400)"></circle><circle r="77.5" cx="400" cy="400" stroke-width="6" stroke-dasharray="75 487" transform="rotate(69, 400, 400)"></circle><circle r="62" cx="400" cy="400" stroke-width="6" stroke-dasharray="45 390" transform="rotate(51, 400, 400)"></circle><circle r="46.5" cx="400" cy="400" stroke-width="6" stroke-dasharray="23 292" transform="rotate(34, 400, 400)"></circle><circle r="31" cx="400" cy="400" stroke-width="6" stroke-dasharray="8 195" transform="rotate(17, 400, 400)"></circle><circle r="15.5" cx="400" cy="400" stroke-width="6" stroke-dasharray="0 97"></circle></g></svg>