<svg width="27" height="28" viewBox="0 0 27 28" fill="none" xmlns="http://www.w3.org/2000/svg">
<path d="M9.03085 21.2953C9.03085 21.4047 8.90565 21.4922 8.74778 21.4922C8.56814 21.5086 8.44294 21.4211 8.44294 21.2953C8.44294 21.1859 8.56815 21.0984 8.72601 21.0984C8.88931 21.082 9.03085 21.1695 9.03085 21.2953ZM7.3379 21.0492C7.2998 21.1586 7.40867 21.2844 7.57198 21.3172C7.71351 21.3719 7.87681 21.3172 7.90948 21.2078C7.94214 21.0984 7.83871 20.9727 7.6754 20.9234C7.53387 20.8852 7.37601 20.9398 7.3379 21.0492ZM9.74395 20.9563C9.58609 20.9945 9.47722 21.0984 9.49355 21.2242C9.50988 21.3336 9.65141 21.4047 9.81472 21.3664C9.97258 21.3281 10.0815 21.2242 10.0651 21.1148C10.0488 21.0109 9.90181 20.9398 9.74395 20.9563ZM13.3258 0C5.77561 0 0 5.75859 0 13.3438C0 19.4086 3.7996 24.5984 9.22681 26.425C9.92359 26.5508 10.1685 26.1187 10.1685 25.7633C10.1685 25.4242 10.1522 23.5539 10.1522 22.4055C10.1522 22.4055 6.34173 23.2258 5.54153 20.7758C5.54153 20.7758 4.92097 19.1844 4.02823 18.7742C4.02823 18.7742 2.78165 17.9156 4.11532 17.932C4.11532 17.932 5.47077 18.0414 6.21653 19.343C7.40867 21.4539 9.40645 20.8469 10.1849 20.4859C10.3101 19.6109 10.6639 19.0039 11.0558 18.643C8.0129 18.3039 4.94274 17.8609 4.94274 12.6C4.94274 11.0961 5.35645 10.3414 6.22742 9.37891C6.08589 9.02344 5.62319 7.55781 6.36895 5.66563C7.50665 5.31016 10.125 7.14219 10.125 7.14219C11.2137 6.83594 12.3841 6.67734 13.5435 6.67734C14.703 6.67734 15.8734 6.83594 16.9621 7.14219C16.9621 7.14219 19.5804 5.30469 20.7181 5.66563C21.4639 7.56328 21.0012 9.02344 20.8597 9.37891C21.7306 10.3469 22.2641 11.1016 22.2641 12.6C22.2641 17.8773 19.0579 18.2984 16.0149 18.643C16.5157 19.075 16.9403 19.8953 16.9403 21.1805C16.9403 23.0234 16.924 25.3039 16.924 25.7523C16.924 26.1078 17.1744 26.5398 17.8657 26.4141C23.3093 24.5984 27 19.4086 27 13.3438C27 5.75859 20.876 0 13.3258 0ZM5.29113 18.8617C5.22036 18.9164 5.23669 19.0422 5.32923 19.1461C5.41633 19.2336 5.54153 19.2719 5.6123 19.2008C5.68306 19.1461 5.66673 19.0203 5.57419 18.9164C5.4871 18.8289 5.3619 18.7906 5.29113 18.8617ZM4.70323 18.4187C4.66512 18.4898 4.71956 18.5773 4.82843 18.632C4.91552 18.6867 5.02439 18.6703 5.0625 18.5938C5.10061 18.5227 5.04617 18.4352 4.9373 18.3805C4.82843 18.3477 4.74133 18.3641 4.70323 18.4187ZM6.46694 20.3656C6.37984 20.4367 6.4125 20.6008 6.5377 20.7047C6.6629 20.8305 6.82077 20.8469 6.89153 20.7594C6.9623 20.6883 6.92964 20.5242 6.82077 20.4203C6.70101 20.2945 6.5377 20.2781 6.46694 20.3656ZM5.84637 19.5617C5.75927 19.6164 5.75927 19.7586 5.84637 19.8844C5.93347 20.0102 6.08044 20.0648 6.15121 20.0102C6.23831 19.9391 6.23831 19.7969 6.15121 19.6711C6.075 19.5453 5.93347 19.4906 5.84637 19.5617Z" fill="white"/>
</svg>
