<svg width="24" height="28" viewBox="0 0 24 28" fill="none" xmlns="http://www.w3.org/2000/svg">
<path d="M22.2857 1.75H1.70893C0.766071 1.75 0 2.54297 0 3.51641V24.4836C0 25.457 0.766071 26.25 1.70893 26.25H22.2857C23.2286 26.25 24 25.457 24 24.4836V3.51641C24 2.54297 23.2286 1.75 22.2857 1.75ZM7.25357 22.75H3.69643V11.0578H7.25893V22.75H7.25357ZM5.475 9.46094C4.33393 9.46094 3.4125 8.51484 3.4125 7.35547C3.4125 6.19609 4.33393 5.25 5.475 5.25C6.61071 5.25 7.5375 6.19609 7.5375 7.35547C7.5375 8.52031 6.61607 9.46094 5.475 9.46094ZM20.5875 22.75H17.0304V17.0625C17.0304 15.7063 17.0036 13.9617 15.1821 13.9617C13.3286 13.9617 13.0446 15.4383 13.0446 16.9641V22.75H9.4875V11.0578H12.9V12.6547H12.9482C13.425 11.7359 14.5875 10.768 16.3179 10.768C19.9179 10.768 20.5875 13.1906 20.5875 16.3406V22.75Z" fill="white"/>
</svg>
