<svg width="33" height="35" viewBox="0 0 33 35" fill="none" xmlns="http://www.w3.org/2000/svg">
<g clip-path="url(#clip0_514_1902)" filter="url(#filter0_d_514_1902)">
<path d="M16.5056 7.71092C12.9565 7.71092 10.0938 10.5164 10.0938 13.9945C10.0938 17.4726 12.9565 20.2781 16.5056 20.2781C20.0547 20.2781 22.9174 17.4726 22.9174 13.9945C22.9174 10.5164 20.0547 7.71092 16.5056 7.71092ZM16.5056 18.0797C14.2121 18.0797 12.3371 16.2476 12.3371 13.9945C12.3371 11.7414 14.2065 9.90936 16.5056 9.90936C18.8047 9.90936 20.6741 11.7414 20.6741 13.9945C20.6741 16.2476 18.7991 18.0797 16.5056 18.0797ZM24.6752 7.45389C24.6752 8.26874 24.0056 8.91952 23.1797 8.91952C22.3482 8.91952 21.6841 8.26327 21.6841 7.45389C21.6841 6.64452 22.3538 5.98827 23.1797 5.98827C24.0056 5.98827 24.6752 6.64452 24.6752 7.45389ZM28.9219 8.94139C28.827 6.97811 28.3694 5.23905 26.9018 3.80624C25.4397 2.37342 23.6652 1.92499 21.6618 1.82655C19.5971 1.71171 13.4085 1.71171 11.3438 1.82655C9.34598 1.91952 7.57143 2.36796 6.1038 3.80077C4.63616 5.23358 4.18416 6.97264 4.08371 8.93592C3.96652 10.9594 3.96652 17.0242 4.08371 19.0476C4.17858 21.0109 4.63616 22.75 6.1038 24.1828C7.57143 25.6156 9.3404 26.064 11.3438 26.1625C13.4085 26.2773 19.5971 26.2773 21.6618 26.1625C23.6652 26.0695 25.4397 25.6211 26.9018 24.1828C28.3638 22.75 28.8214 21.0109 28.9219 19.0476C29.0391 17.0242 29.0391 10.9648 28.9219 8.94139ZM26.2545 21.2187C25.8192 22.2906 24.9766 23.1164 23.8772 23.5484C22.231 24.1883 18.3248 24.0406 16.5056 24.0406C14.6864 24.0406 10.7746 24.1828 9.13393 23.5484C8.04018 23.1219 7.19755 22.2961 6.7567 21.2187C6.1038 19.6055 6.25447 15.7773 6.25447 13.9945C6.25447 12.2117 6.10938 8.37811 6.7567 6.7703C7.19197 5.69842 8.0346 4.87264 9.13393 4.44061C10.7801 3.80077 14.6864 3.94842 16.5056 3.94842C18.3248 3.94842 22.2366 3.80624 23.8772 4.44061C24.971 4.86717 25.8136 5.69296 26.2545 6.7703C26.9074 8.38358 26.7567 12.2117 26.7567 13.9945C26.7567 15.7773 26.9074 19.6109 26.2545 21.2187Z" fill="white"/>
</g>
<defs>
<filter id="filter0_d_514_1902" x="0" y="0" width="33" height="36" filterUnits="userSpaceOnUse" color-interpolation-filters="sRGB">
<feFlood flood-opacity="0" result="BackgroundImageFix"/>
<feColorMatrix in="SourceAlpha" type="matrix" values="0 0 0 0 0 0 0 0 0 0 0 0 0 0 0 0 0 0 127 0" result="hardAlpha"/>
<feOffset dy="4"/>
<feGaussianBlur stdDeviation="2"/>
<feComposite in2="hardAlpha" operator="out"/>
<feColorMatrix type="matrix" values="0 0 0 0 0 0 0 0 0 0 0 0 0 0 0 0 0 0 0.25 0"/>
<feBlend mode="normal" in2="BackgroundImageFix" result="effect1_dropShadow_514_1902"/>
<feBlend mode="normal" in="SourceGraphic" in2="effect1_dropShadow_514_1902" result="shape"/>
</filter>
<clipPath id="clip0_514_1902">
<rect width="25" height="28" fill="white" transform="translate(4)"/>
</clipPath>
</defs>
</svg>
